<mxfile host="65bd71144e">
    <diagram id="xxtGg2wU7yqez92tXx-T" name="Sistema de Aluguel de Carros ">
        <mxGraphModel dx="161" dy="779" grid="1" gridSize="10" guides="1" tooltips="1" connect="1" arrows="1" fold="1" page="1" pageScale="1" pageWidth="827" pageHeight="1169" math="0" shadow="0">
            <root>
                <mxCell id="0"/>
                <mxCell id="1" parent="0"/>
                <mxCell id="Yxqgq9dQf2puIT-HWOEp-28" style="edgeStyle=none;shape=connector;rounded=1;html=1;exitX=0.25;exitY=1;exitDx=0;exitDy=0;strokeColor=default;align=center;verticalAlign=middle;fontFamily=Helvetica;fontSize=11;fontColor=default;labelBackgroundColor=default;endArrow=none;endFill=0;" parent="1" source="Yxqgq9dQf2puIT-HWOEp-1" target="Yxqgq9dQf2puIT-HWOEp-30" edge="1">
                    <mxGeometry relative="1" as="geometry">
                        <mxPoint x="520" y="700" as="targetPoint"/>
                    </mxGeometry>
                </mxCell>
                <mxCell id="Yxqgq9dQf2puIT-HWOEp-31" style="edgeStyle=none;shape=connector;rounded=1;html=1;exitX=0.5;exitY=1;exitDx=0;exitDy=0;strokeColor=default;align=center;verticalAlign=middle;fontFamily=Helvetica;fontSize=11;fontColor=default;labelBackgroundColor=default;endArrow=none;endFill=0;" parent="1" source="Yxqgq9dQf2puIT-HWOEp-1" target="Yxqgq9dQf2puIT-HWOEp-32" edge="1">
                    <mxGeometry relative="1" as="geometry">
                        <mxPoint x="600" y="770" as="targetPoint"/>
                    </mxGeometry>
                </mxCell>
                <mxCell id="Yxqgq9dQf2puIT-HWOEp-33" style="edgeStyle=none;shape=connector;rounded=1;html=1;exitX=0.75;exitY=1;exitDx=0;exitDy=0;strokeColor=default;align=center;verticalAlign=middle;fontFamily=Helvetica;fontSize=11;fontColor=default;labelBackgroundColor=default;endArrow=none;endFill=0;" parent="1" source="Yxqgq9dQf2puIT-HWOEp-1" target="Yxqgq9dQf2puIT-HWOEp-36" edge="1">
                    <mxGeometry relative="1" as="geometry">
                        <mxPoint x="650" y="690" as="targetPoint"/>
                    </mxGeometry>
                </mxCell>
                <mxCell id="Yxqgq9dQf2puIT-HWOEp-37" style="edgeStyle=none;shape=connector;rounded=1;html=1;exitX=0;exitY=1;exitDx=0;exitDy=0;strokeColor=default;align=center;verticalAlign=middle;fontFamily=Helvetica;fontSize=11;fontColor=default;labelBackgroundColor=default;endArrow=none;endFill=0;" parent="1" source="Yxqgq9dQf2puIT-HWOEp-1" target="Yxqgq9dQf2puIT-HWOEp-38" edge="1">
                    <mxGeometry relative="1" as="geometry">
                        <mxPoint x="450" y="630" as="targetPoint"/>
                    </mxGeometry>
                </mxCell>
                <mxCell id="Yxqgq9dQf2puIT-HWOEp-39" style="edgeStyle=none;shape=connector;rounded=1;html=1;exitX=0;exitY=0.5;exitDx=0;exitDy=0;strokeColor=default;align=center;verticalAlign=middle;fontFamily=Helvetica;fontSize=11;fontColor=default;labelBackgroundColor=default;endArrow=none;endFill=0;" parent="1" source="Yxqgq9dQf2puIT-HWOEp-1" target="Yxqgq9dQf2puIT-HWOEp-40" edge="1">
                    <mxGeometry relative="1" as="geometry">
                        <mxPoint x="440" y="540" as="targetPoint"/>
                    </mxGeometry>
                </mxCell>
                <mxCell id="Yxqgq9dQf2puIT-HWOEp-41" style="edgeStyle=none;shape=connector;rounded=1;html=1;exitX=1;exitY=0.75;exitDx=0;exitDy=0;strokeColor=default;align=center;verticalAlign=middle;fontFamily=Helvetica;fontSize=11;fontColor=default;labelBackgroundColor=default;endArrow=none;endFill=0;" parent="1" source="Yxqgq9dQf2puIT-HWOEp-1" target="Yxqgq9dQf2puIT-HWOEp-42" edge="1">
                    <mxGeometry relative="1" as="geometry">
                        <mxPoint x="680" y="570" as="targetPoint"/>
                    </mxGeometry>
                </mxCell>
                <mxCell id="Yxqgq9dQf2puIT-HWOEp-1" value="Cliente" style="rounded=0;whiteSpace=wrap;html=1;" parent="1" vertex="1">
                    <mxGeometry x="500" y="540" width="120" height="60" as="geometry"/>
                </mxCell>
                <mxCell id="12" style="edgeStyle=none;html=1;exitX=1;exitY=0;exitDx=0;exitDy=0;entryX=0;entryY=0.5;entryDx=0;entryDy=0;endArrow=none;endFill=0;" parent="1" source="Yxqgq9dQf2puIT-HWOEp-2" target="9" edge="1">
                    <mxGeometry relative="1" as="geometry"/>
                </mxCell>
                <mxCell id="Yxqgq9dQf2puIT-HWOEp-2" value="Contrato de Aluguel" style="rounded=0;whiteSpace=wrap;html=1;" parent="1" vertex="1">
                    <mxGeometry x="950" y="190" width="120" height="60" as="geometry"/>
                </mxCell>
                <mxCell id="Yxqgq9dQf2puIT-HWOEp-11" style="edgeStyle=none;shape=connector;rounded=1;html=1;exitX=0.5;exitY=0;exitDx=0;exitDy=0;entryX=0.5;entryY=1;entryDx=0;entryDy=0;strokeColor=default;align=center;verticalAlign=middle;fontFamily=Helvetica;fontSize=11;fontColor=default;labelBackgroundColor=default;endArrow=none;endFill=0;" parent="1" source="Yxqgq9dQf2puIT-HWOEp-35" target="Yxqgq9dQf2puIT-HWOEp-2" edge="1">
                    <mxGeometry relative="1" as="geometry"/>
                </mxCell>
                <mxCell id="Yxqgq9dQf2puIT-HWOEp-43" style="edgeStyle=none;shape=connector;rounded=1;html=1;exitX=0.25;exitY=1;exitDx=0;exitDy=0;strokeColor=default;align=center;verticalAlign=middle;fontFamily=Helvetica;fontSize=11;fontColor=default;labelBackgroundColor=default;endArrow=none;endFill=0;" parent="1" source="Yxqgq9dQf2puIT-HWOEp-4" target="Yxqgq9dQf2puIT-HWOEp-44" edge="1">
                    <mxGeometry relative="1" as="geometry">
                        <mxPoint x="1370" y="700" as="targetPoint"/>
                        <mxPoint x="1440" y="630" as="sourcePoint"/>
                    </mxGeometry>
                </mxCell>
                <mxCell id="Yxqgq9dQf2puIT-HWOEp-45" style="edgeStyle=none;shape=connector;rounded=1;html=1;exitX=0.648;exitY=0.974;exitDx=0;exitDy=0;strokeColor=default;align=center;verticalAlign=middle;fontFamily=Helvetica;fontSize=11;fontColor=default;labelBackgroundColor=default;endArrow=none;endFill=0;exitPerimeter=0;" parent="1" source="Yxqgq9dQf2puIT-HWOEp-4" target="Yxqgq9dQf2puIT-HWOEp-46" edge="1">
                    <mxGeometry relative="1" as="geometry">
                        <mxPoint x="1510" y="720" as="targetPoint"/>
                        <mxPoint x="1470" y="630" as="sourcePoint"/>
                    </mxGeometry>
                </mxCell>
                <mxCell id="Yxqgq9dQf2puIT-HWOEp-47" style="edgeStyle=none;shape=connector;rounded=1;html=1;exitX=1;exitY=1;exitDx=0;exitDy=0;strokeColor=default;align=center;verticalAlign=middle;fontFamily=Helvetica;fontSize=11;fontColor=default;labelBackgroundColor=default;endArrow=none;endFill=0;" parent="1" source="Yxqgq9dQf2puIT-HWOEp-4" target="Yxqgq9dQf2puIT-HWOEp-48" edge="1">
                    <mxGeometry relative="1" as="geometry">
                        <mxPoint x="1600" y="650" as="targetPoint"/>
                        <mxPoint x="1530" y="615" as="sourcePoint"/>
                    </mxGeometry>
                </mxCell>
                <mxCell id="Yxqgq9dQf2puIT-HWOEp-53" style="edgeStyle=none;shape=connector;rounded=1;html=1;exitX=0.25;exitY=1;exitDx=0;exitDy=0;strokeColor=default;align=center;verticalAlign=middle;fontFamily=Helvetica;fontSize=11;fontColor=default;labelBackgroundColor=default;endArrow=none;endFill=0;" parent="1" source="Yxqgq9dQf2puIT-HWOEp-3" target="Yxqgq9dQf2puIT-HWOEp-54" edge="1">
                    <mxGeometry relative="1" as="geometry">
                        <mxPoint x="930" y="690" as="targetPoint"/>
                    </mxGeometry>
                </mxCell>
                <mxCell id="Yxqgq9dQf2puIT-HWOEp-55" style="edgeStyle=none;shape=connector;rounded=1;html=1;exitX=0.5;exitY=1;exitDx=0;exitDy=0;strokeColor=default;align=center;verticalAlign=middle;fontFamily=Helvetica;fontSize=11;fontColor=default;labelBackgroundColor=default;endArrow=none;endFill=0;" parent="1" source="Yxqgq9dQf2puIT-HWOEp-3" target="Yxqgq9dQf2puIT-HWOEp-56" edge="1">
                    <mxGeometry relative="1" as="geometry">
                        <mxPoint x="1030" y="720" as="targetPoint"/>
                    </mxGeometry>
                </mxCell>
                <mxCell id="Yxqgq9dQf2puIT-HWOEp-57" style="edgeStyle=none;shape=connector;rounded=1;html=1;exitX=0.75;exitY=1;exitDx=0;exitDy=0;strokeColor=default;align=center;verticalAlign=middle;fontFamily=Helvetica;fontSize=11;fontColor=default;labelBackgroundColor=default;endArrow=none;endFill=0;" parent="1" source="Yxqgq9dQf2puIT-HWOEp-3" target="Yxqgq9dQf2puIT-HWOEp-58" edge="1">
                    <mxGeometry relative="1" as="geometry">
                        <mxPoint x="1100" y="700" as="targetPoint"/>
                    </mxGeometry>
                </mxCell>
                <mxCell id="Yxqgq9dQf2puIT-HWOEp-59" style="edgeStyle=none;shape=connector;rounded=1;html=1;exitX=1;exitY=0.75;exitDx=0;exitDy=0;strokeColor=default;align=center;verticalAlign=middle;fontFamily=Helvetica;fontSize=11;fontColor=default;labelBackgroundColor=default;endArrow=none;endFill=0;" parent="1" source="Yxqgq9dQf2puIT-HWOEp-3" target="Yxqgq9dQf2puIT-HWOEp-60" edge="1">
                    <mxGeometry relative="1" as="geometry">
                        <mxPoint x="1160" y="630" as="targetPoint"/>
                    </mxGeometry>
                </mxCell>
                <mxCell id="Yxqgq9dQf2puIT-HWOEp-61" style="edgeStyle=none;shape=connector;rounded=1;html=1;exitX=0;exitY=0.75;exitDx=0;exitDy=0;strokeColor=default;align=center;verticalAlign=middle;fontFamily=Helvetica;fontSize=11;fontColor=default;labelBackgroundColor=default;endArrow=none;endFill=0;" parent="1" source="Yxqgq9dQf2puIT-HWOEp-3" target="Yxqgq9dQf2puIT-HWOEp-62" edge="1">
                    <mxGeometry relative="1" as="geometry">
                        <mxPoint x="860" y="610" as="targetPoint"/>
                    </mxGeometry>
                </mxCell>
                <mxCell id="Yxqgq9dQf2puIT-HWOEp-63" style="edgeStyle=none;shape=connector;rounded=1;html=1;exitX=1;exitY=0.25;exitDx=0;exitDy=0;strokeColor=default;align=center;verticalAlign=middle;fontFamily=Helvetica;fontSize=11;fontColor=default;labelBackgroundColor=default;endArrow=none;endFill=0;" parent="1" source="Yxqgq9dQf2puIT-HWOEp-3" target="Yxqgq9dQf2puIT-HWOEp-64" edge="1">
                    <mxGeometry relative="1" as="geometry">
                        <mxPoint x="1180" y="530" as="targetPoint"/>
                    </mxGeometry>
                </mxCell>
                <mxCell id="Yxqgq9dQf2puIT-HWOEp-3" value="Veículo" style="rounded=0;whiteSpace=wrap;html=1;" parent="1" vertex="1">
                    <mxGeometry x="950" y="540" width="120" height="60" as="geometry"/>
                </mxCell>
                <mxCell id="Yxqgq9dQf2puIT-HWOEp-12" style="edgeStyle=none;shape=connector;rounded=1;html=1;entryX=1;entryY=0.5;entryDx=0;entryDy=0;strokeColor=default;align=center;verticalAlign=middle;fontFamily=Helvetica;fontSize=11;fontColor=default;labelBackgroundColor=default;endArrow=none;endFill=0;" parent="1" source="Yxqgq9dQf2puIT-HWOEp-20" target="Yxqgq9dQf2puIT-HWOEp-2" edge="1">
                    <mxGeometry relative="1" as="geometry">
                        <Array as="points"/>
                    </mxGeometry>
                </mxCell>
                <mxCell id="13" style="edgeStyle=none;html=1;exitX=1;exitY=0;exitDx=0;exitDy=0;entryX=0.5;entryY=1;entryDx=0;entryDy=0;endArrow=none;endFill=0;" parent="1" source="Yxqgq9dQf2puIT-HWOEp-4" target="10" edge="1">
                    <mxGeometry relative="1" as="geometry"/>
                </mxCell>
                <mxCell id="Yxqgq9dQf2puIT-HWOEp-4" value="Local" style="rounded=0;whiteSpace=wrap;html=1;" parent="1" vertex="1">
                    <mxGeometry x="1420" y="540" width="120" height="60" as="geometry"/>
                </mxCell>
                <mxCell id="Yxqgq9dQf2puIT-HWOEp-14" style="edgeStyle=none;shape=connector;rounded=1;html=1;exitX=1;exitY=0.5;exitDx=0;exitDy=0;strokeColor=default;align=center;verticalAlign=middle;fontFamily=Helvetica;fontSize=11;fontColor=default;labelBackgroundColor=default;endArrow=none;endFill=0;entryX=0;entryY=0.5;entryDx=0;entryDy=0;" parent="1" source="Yxqgq9dQf2puIT-HWOEp-18" target="Yxqgq9dQf2puIT-HWOEp-2" edge="1">
                    <mxGeometry relative="1" as="geometry">
                        <mxPoint x="1010" y="220" as="targetPoint"/>
                        <mxPoint x="560" y="540" as="sourcePoint"/>
                        <Array as="points"/>
                    </mxGeometry>
                </mxCell>
                <mxCell id="Yxqgq9dQf2puIT-HWOEp-17" value="" style="edgeStyle=none;shape=connector;rounded=1;html=1;exitX=0.5;exitY=0;exitDx=0;exitDy=0;strokeColor=default;align=center;verticalAlign=middle;fontFamily=Helvetica;fontSize=11;fontColor=default;labelBackgroundColor=default;endArrow=none;endFill=0;entryX=0;entryY=0.5;entryDx=0;entryDy=0;" parent="1" source="Yxqgq9dQf2puIT-HWOEp-22" target="Yxqgq9dQf2puIT-HWOEp-18" edge="1">
                    <mxGeometry relative="1" as="geometry">
                        <mxPoint x="950" y="220" as="targetPoint"/>
                        <mxPoint x="560" y="540" as="sourcePoint"/>
                        <Array as="points">
                            <mxPoint x="560" y="220"/>
                        </Array>
                    </mxGeometry>
                </mxCell>
                <mxCell id="Yxqgq9dQf2puIT-HWOEp-18" value="(N:1)" style="text;html=1;align=center;verticalAlign=middle;whiteSpace=wrap;rounded=0;fontFamily=Helvetica;fontSize=11;fontColor=default;labelBackgroundColor=default;" parent="1" vertex="1">
                    <mxGeometry x="920" y="205" width="30" height="30" as="geometry"/>
                </mxCell>
                <mxCell id="Yxqgq9dQf2puIT-HWOEp-20" value="(N:1)" style="text;html=1;align=center;verticalAlign=middle;whiteSpace=wrap;rounded=0;fontFamily=Helvetica;fontSize=11;fontColor=default;labelBackgroundColor=default;" parent="1" vertex="1">
                    <mxGeometry x="1070" y="205" width="30" height="30" as="geometry"/>
                </mxCell>
                <mxCell id="Yxqgq9dQf2puIT-HWOEp-21" value="" style="edgeStyle=none;shape=connector;rounded=1;html=1;exitX=0.5;exitY=0;exitDx=0;exitDy=0;strokeColor=default;align=center;verticalAlign=middle;fontFamily=Helvetica;fontSize=11;fontColor=default;labelBackgroundColor=default;endArrow=none;endFill=0;entryX=0.5;entryY=1;entryDx=0;entryDy=0;" parent="1" source="Yxqgq9dQf2puIT-HWOEp-1" target="Yxqgq9dQf2puIT-HWOEp-22" edge="1">
                    <mxGeometry relative="1" as="geometry">
                        <mxPoint x="920" y="220" as="targetPoint"/>
                        <mxPoint x="560" y="540" as="sourcePoint"/>
                        <Array as="points"/>
                    </mxGeometry>
                </mxCell>
                <mxCell id="Yxqgq9dQf2puIT-HWOEp-22" value="(1:N)" style="text;html=1;align=center;verticalAlign=middle;whiteSpace=wrap;rounded=0;fontFamily=Helvetica;fontSize=11;fontColor=default;labelBackgroundColor=default;" parent="1" vertex="1">
                    <mxGeometry x="530" y="510" width="60" height="30" as="geometry"/>
                </mxCell>
                <mxCell id="Yxqgq9dQf2puIT-HWOEp-23" value="" style="edgeStyle=none;shape=connector;rounded=1;html=1;exitX=0.5;exitY=0;exitDx=0;exitDy=0;entryX=0.5;entryY=1;entryDx=0;entryDy=0;strokeColor=default;align=center;verticalAlign=middle;fontFamily=Helvetica;fontSize=11;fontColor=default;labelBackgroundColor=default;endArrow=none;endFill=0;" parent="1" source="Yxqgq9dQf2puIT-HWOEp-3" target="Yxqgq9dQf2puIT-HWOEp-24" edge="1">
                    <mxGeometry relative="1" as="geometry">
                        <mxPoint x="1010" y="540" as="sourcePoint"/>
                        <mxPoint x="1010" y="250" as="targetPoint"/>
                    </mxGeometry>
                </mxCell>
                <mxCell id="Yxqgq9dQf2puIT-HWOEp-24" value="(1:N)" style="text;html=1;align=center;verticalAlign=middle;whiteSpace=wrap;rounded=0;fontFamily=Helvetica;fontSize=11;fontColor=default;labelBackgroundColor=default;" parent="1" vertex="1">
                    <mxGeometry x="980" y="510" width="60" height="30" as="geometry"/>
                </mxCell>
                <mxCell id="Yxqgq9dQf2puIT-HWOEp-25" value="" style="edgeStyle=none;shape=connector;rounded=1;html=1;exitX=0.5;exitY=0;exitDx=0;exitDy=0;entryX=0.5;entryY=1;entryDx=0;entryDy=0;strokeColor=default;align=center;verticalAlign=middle;fontFamily=Helvetica;fontSize=11;fontColor=default;labelBackgroundColor=default;endArrow=none;endFill=0;" parent="1" source="Yxqgq9dQf2puIT-HWOEp-4" target="Yxqgq9dQf2puIT-HWOEp-26" edge="1">
                    <mxGeometry relative="1" as="geometry">
                        <mxPoint x="1490" y="540" as="sourcePoint"/>
                        <mxPoint x="1100" y="220" as="targetPoint"/>
                        <Array as="points"/>
                    </mxGeometry>
                </mxCell>
                <mxCell id="Yxqgq9dQf2puIT-HWOEp-26" value="(1:N)" style="text;html=1;align=center;verticalAlign=middle;whiteSpace=wrap;rounded=0;fontFamily=Helvetica;fontSize=11;fontColor=default;labelBackgroundColor=default;" parent="1" vertex="1">
                    <mxGeometry x="1450" y="510" width="60" height="30" as="geometry"/>
                </mxCell>
                <mxCell id="Yxqgq9dQf2puIT-HWOEp-27" value="" style="edgeStyle=none;shape=connector;rounded=1;html=1;exitX=0.5;exitY=0;exitDx=0;exitDy=0;entryX=1;entryY=0.5;entryDx=0;entryDy=0;strokeColor=default;align=center;verticalAlign=middle;fontFamily=Helvetica;fontSize=11;fontColor=default;labelBackgroundColor=default;endArrow=none;endFill=0;" parent="1" source="Yxqgq9dQf2puIT-HWOEp-26" target="Yxqgq9dQf2puIT-HWOEp-20" edge="1">
                    <mxGeometry relative="1" as="geometry">
                        <mxPoint x="1480" y="510" as="sourcePoint"/>
                        <mxPoint x="1100" y="220" as="targetPoint"/>
                        <Array as="points">
                            <mxPoint x="1480" y="220"/>
                        </Array>
                    </mxGeometry>
                </mxCell>
                <mxCell id="Yxqgq9dQf2puIT-HWOEp-30" value="ID" style="ellipse;whiteSpace=wrap;html=1;aspect=fixed;fontFamily=Helvetica;fontSize=11;fontColor=default;labelBackgroundColor=default;" parent="1" vertex="1">
                    <mxGeometry x="480" y="660" width="40" height="40" as="geometry"/>
                </mxCell>
                <mxCell id="Yxqgq9dQf2puIT-HWOEp-32" value="Nome" style="ellipse;whiteSpace=wrap;html=1;aspect=fixed;strokeColor=default;align=center;verticalAlign=middle;fontFamily=Helvetica;fontSize=11;fontColor=default;labelBackgroundColor=default;fillColor=default;" parent="1" vertex="1">
                    <mxGeometry x="560" y="730" width="50" height="50" as="geometry"/>
                </mxCell>
                <mxCell id="Yxqgq9dQf2puIT-HWOEp-34" value="" style="edgeStyle=none;shape=connector;rounded=1;html=1;exitX=0.5;exitY=0;exitDx=0;exitDy=0;entryX=0.5;entryY=1;entryDx=0;entryDy=0;strokeColor=default;align=center;verticalAlign=middle;fontFamily=Helvetica;fontSize=11;fontColor=default;labelBackgroundColor=default;endArrow=none;endFill=0;" parent="1" source="Yxqgq9dQf2puIT-HWOEp-24" target="Yxqgq9dQf2puIT-HWOEp-35" edge="1">
                    <mxGeometry relative="1" as="geometry">
                        <mxPoint x="1010" y="510" as="sourcePoint"/>
                        <mxPoint x="1010" y="250" as="targetPoint"/>
                    </mxGeometry>
                </mxCell>
                <mxCell id="Yxqgq9dQf2puIT-HWOEp-35" value="(N:1)" style="text;html=1;align=center;verticalAlign=middle;whiteSpace=wrap;rounded=0;fontFamily=Helvetica;fontSize=11;fontColor=default;labelBackgroundColor=default;" parent="1" vertex="1">
                    <mxGeometry x="980" y="250" width="60" height="30" as="geometry"/>
                </mxCell>
                <mxCell id="Yxqgq9dQf2puIT-HWOEp-36" value="CPF" style="ellipse;whiteSpace=wrap;html=1;aspect=fixed;strokeColor=default;align=center;verticalAlign=middle;fontFamily=Helvetica;fontSize=11;fontColor=default;labelBackgroundColor=default;fillColor=default;" parent="1" vertex="1">
                    <mxGeometry x="610" y="650" width="50" height="50" as="geometry"/>
                </mxCell>
                <mxCell id="Yxqgq9dQf2puIT-HWOEp-38" value="Telefone" style="ellipse;whiteSpace=wrap;html=1;aspect=fixed;strokeColor=default;align=center;verticalAlign=middle;fontFamily=Helvetica;fontSize=11;fontColor=default;labelBackgroundColor=default;fillColor=default;" parent="1" vertex="1">
                    <mxGeometry x="410" y="590" width="50" height="50" as="geometry"/>
                </mxCell>
                <mxCell id="Yxqgq9dQf2puIT-HWOEp-40" value="Email" style="ellipse;whiteSpace=wrap;html=1;aspect=fixed;strokeColor=default;align=center;verticalAlign=middle;fontFamily=Helvetica;fontSize=11;fontColor=default;labelBackgroundColor=default;fillColor=default;" parent="1" vertex="1">
                    <mxGeometry x="430" y="530" width="50" height="50" as="geometry"/>
                </mxCell>
                <mxCell id="Yxqgq9dQf2puIT-HWOEp-42" value="Endereço" style="ellipse;whiteSpace=wrap;html=1;aspect=fixed;strokeColor=default;align=center;verticalAlign=middle;fontFamily=Helvetica;fontSize=11;fontColor=default;labelBackgroundColor=default;fillColor=default;" parent="1" vertex="1">
                    <mxGeometry x="640" y="550" width="60" height="60" as="geometry"/>
                </mxCell>
                <mxCell id="Yxqgq9dQf2puIT-HWOEp-44" value="ID" style="ellipse;whiteSpace=wrap;html=1;aspect=fixed;strokeColor=default;align=center;verticalAlign=middle;fontFamily=Helvetica;fontSize=11;fontColor=default;labelBackgroundColor=default;fillColor=default;" parent="1" vertex="1">
                    <mxGeometry x="1400" y="700" width="50" height="50" as="geometry"/>
                </mxCell>
                <mxCell id="Yxqgq9dQf2puIT-HWOEp-46" value="Local de Devolução" style="ellipse;whiteSpace=wrap;html=1;aspect=fixed;strokeColor=default;align=center;verticalAlign=middle;fontFamily=Helvetica;fontSize=11;fontColor=default;labelBackgroundColor=default;fillColor=default;" parent="1" vertex="1">
                    <mxGeometry x="1470" y="680" width="90" height="90" as="geometry"/>
                </mxCell>
                <mxCell id="Yxqgq9dQf2puIT-HWOEp-48" value="Local de Retirada" style="ellipse;whiteSpace=wrap;html=1;aspect=fixed;strokeColor=default;align=center;verticalAlign=middle;fontFamily=Helvetica;fontSize=11;fontColor=default;labelBackgroundColor=default;fillColor=default;" parent="1" vertex="1">
                    <mxGeometry x="1560" y="610" width="80" height="80" as="geometry"/>
                </mxCell>
                <mxCell id="Yxqgq9dQf2puIT-HWOEp-54" value="ID" style="ellipse;whiteSpace=wrap;html=1;aspect=fixed;strokeColor=default;align=center;verticalAlign=middle;fontFamily=Helvetica;fontSize=11;fontColor=default;labelBackgroundColor=default;fillColor=default;" parent="1" vertex="1">
                    <mxGeometry x="890" y="650" width="40" height="40" as="geometry"/>
                </mxCell>
                <mxCell id="Yxqgq9dQf2puIT-HWOEp-56" value="Tipo" style="ellipse;whiteSpace=wrap;html=1;aspect=fixed;strokeColor=default;align=center;verticalAlign=middle;fontFamily=Helvetica;fontSize=11;fontColor=default;labelBackgroundColor=default;fillColor=default;" parent="1" vertex="1">
                    <mxGeometry x="990" y="680" width="40" height="40" as="geometry"/>
                </mxCell>
                <mxCell id="Yxqgq9dQf2puIT-HWOEp-58" value="Marca" style="ellipse;whiteSpace=wrap;html=1;aspect=fixed;strokeColor=default;align=center;verticalAlign=middle;fontFamily=Helvetica;fontSize=11;fontColor=default;labelBackgroundColor=default;fillColor=default;" parent="1" vertex="1">
                    <mxGeometry x="1060" y="660" width="40" height="40" as="geometry"/>
                </mxCell>
                <mxCell id="Yxqgq9dQf2puIT-HWOEp-60" value="Cor" style="ellipse;whiteSpace=wrap;html=1;aspect=fixed;strokeColor=default;align=center;verticalAlign=middle;fontFamily=Helvetica;fontSize=11;fontColor=default;labelBackgroundColor=default;fillColor=default;" parent="1" vertex="1">
                    <mxGeometry x="1120" y="590" width="50" height="50" as="geometry"/>
                </mxCell>
                <mxCell id="Yxqgq9dQf2puIT-HWOEp-62" value="Placa" style="ellipse;whiteSpace=wrap;html=1;aspect=fixed;strokeColor=default;align=center;verticalAlign=middle;fontFamily=Helvetica;fontSize=11;fontColor=default;labelBackgroundColor=default;fillColor=default;" parent="1" vertex="1">
                    <mxGeometry x="860" y="570" width="40" height="40" as="geometry"/>
                </mxCell>
                <mxCell id="Yxqgq9dQf2puIT-HWOEp-64" value="Quilometrqagem" style="ellipse;whiteSpace=wrap;html=1;aspect=fixed;strokeColor=default;align=center;verticalAlign=middle;fontFamily=Helvetica;fontSize=11;fontColor=default;labelBackgroundColor=default;fillColor=default;" parent="1" vertex="1">
                    <mxGeometry x="1140" y="480" width="90" height="90" as="geometry"/>
                </mxCell>
                <mxCell id="Yxqgq9dQf2puIT-HWOEp-65" style="edgeStyle=none;shape=connector;rounded=1;html=1;strokeColor=default;align=center;verticalAlign=middle;fontFamily=Helvetica;fontSize=11;fontColor=default;labelBackgroundColor=default;endArrow=none;endFill=0;entryX=0.281;entryY=-0.02;entryDx=0;entryDy=0;entryPerimeter=0;" parent="1" source="Yxqgq9dQf2puIT-HWOEp-68" target="Yxqgq9dQf2puIT-HWOEp-2" edge="1">
                    <mxGeometry relative="1" as="geometry">
                        <mxPoint x="929.9986326007939" y="172.46877948686847" as="targetPoint"/>
                        <mxPoint x="960" y="100" as="sourcePoint"/>
                    </mxGeometry>
                </mxCell>
                <mxCell id="Yxqgq9dQf2puIT-HWOEp-66" style="edgeStyle=none;shape=connector;rounded=1;html=1;exitX=0.5;exitY=0;exitDx=0;exitDy=0;strokeColor=default;align=center;verticalAlign=middle;fontFamily=Helvetica;fontSize=11;fontColor=default;labelBackgroundColor=default;endArrow=none;endFill=0;" parent="1" source="Yxqgq9dQf2puIT-HWOEp-2" target="Yxqgq9dQf2puIT-HWOEp-69" edge="1">
                    <mxGeometry relative="1" as="geometry">
                        <mxPoint x="1050" y="92" as="targetPoint"/>
                        <mxPoint x="1078" y="172" as="sourcePoint"/>
                    </mxGeometry>
                </mxCell>
                <mxCell id="Yxqgq9dQf2puIT-HWOEp-67" style="edgeStyle=none;shape=connector;rounded=1;html=1;exitX=0.849;exitY=-0.02;exitDx=0;exitDy=0;strokeColor=default;align=center;verticalAlign=middle;fontFamily=Helvetica;fontSize=11;fontColor=default;labelBackgroundColor=default;endArrow=none;endFill=0;exitPerimeter=0;" parent="1" source="Yxqgq9dQf2puIT-HWOEp-2" target="Yxqgq9dQf2puIT-HWOEp-70" edge="1">
                    <mxGeometry relative="1" as="geometry">
                        <mxPoint x="1130" y="-28" as="targetPoint"/>
                        <mxPoint x="1070" y="-78" as="sourcePoint"/>
                    </mxGeometry>
                </mxCell>
                <mxCell id="Yxqgq9dQf2puIT-HWOEp-68" value="ID" style="ellipse;whiteSpace=wrap;html=1;aspect=fixed;strokeColor=default;align=center;verticalAlign=middle;fontFamily=Helvetica;fontSize=11;fontColor=default;labelBackgroundColor=default;fillColor=default;" parent="1" vertex="1">
                    <mxGeometry x="920" y="22" width="50" height="50" as="geometry"/>
                </mxCell>
                <mxCell id="Yxqgq9dQf2puIT-HWOEp-69" value="Local de Devolução" style="ellipse;whiteSpace=wrap;html=1;aspect=fixed;strokeColor=default;align=center;verticalAlign=middle;fontFamily=Helvetica;fontSize=11;fontColor=default;labelBackgroundColor=default;fillColor=default;" parent="1" vertex="1">
                    <mxGeometry x="1000" y="2" width="90" height="90" as="geometry"/>
                </mxCell>
                <mxCell id="Yxqgq9dQf2puIT-HWOEp-70" value="Local de Retirada" style="ellipse;whiteSpace=wrap;html=1;aspect=fixed;strokeColor=default;align=center;verticalAlign=middle;fontFamily=Helvetica;fontSize=11;fontColor=default;labelBackgroundColor=default;fillColor=default;" parent="1" vertex="1">
                    <mxGeometry x="1120" y="12" width="80" height="80" as="geometry"/>
                </mxCell>
                <mxCell id="9" value="(N:1)" style="text;html=1;align=center;verticalAlign=middle;whiteSpace=wrap;rounded=0;fontFamily=Helvetica;fontSize=11;fontColor=default;labelBackgroundColor=default;" parent="1" vertex="1">
                    <mxGeometry x="1070" y="175" width="30" height="30" as="geometry"/>
                </mxCell>
                <mxCell id="10" value="(1:N)" style="text;html=1;align=center;verticalAlign=middle;whiteSpace=wrap;rounded=0;fontFamily=Helvetica;fontSize=11;fontColor=default;labelBackgroundColor=default;" parent="1" vertex="1">
                    <mxGeometry x="1510" y="510" width="60" height="30" as="geometry"/>
                </mxCell>
                <mxCell id="11" value="" style="edgeStyle=none;shape=connector;rounded=1;html=1;exitX=0.5;exitY=0;exitDx=0;exitDy=0;strokeColor=default;align=center;verticalAlign=middle;fontFamily=Helvetica;fontSize=11;fontColor=default;labelBackgroundColor=default;endArrow=none;endFill=0;" parent="1" source="10" target="9" edge="1">
                    <mxGeometry relative="1" as="geometry">
                        <mxPoint x="1530" y="480" as="sourcePoint"/>
                        <mxPoint x="1150" y="190" as="targetPoint"/>
                        <Array as="points">
                            <mxPoint x="1600" y="190"/>
                        </Array>
                    </mxGeometry>
                </mxCell>
            </root>
        </mxGraphModel>
    </diagram>
    <diagram id="1M4WCyiPqBJGXV5D22og" name="Sistema de Gerenciamento de E-commerce">
        <mxGraphModel dx="2644" dy="2213" grid="1" gridSize="10" guides="1" tooltips="1" connect="1" arrows="1" fold="1" page="1" pageScale="1" pageWidth="850" pageHeight="1100" math="0" shadow="0">
            <root>
                <mxCell id="0"/>
                <mxCell id="1" parent="0"/>
                <mxCell id="hDdlWtPuV5lefTkJR2zs-5" style="edgeStyle=none;shape=connector;rounded=1;html=1;exitX=1;exitY=0.5;exitDx=0;exitDy=0;entryX=0;entryY=0.5;entryDx=0;entryDy=0;strokeColor=default;align=center;verticalAlign=middle;fontFamily=Helvetica;fontSize=11;fontColor=default;labelBackgroundColor=default;endArrow=none;endFill=0;" parent="1" source="hDdlWtPuV5lefTkJR2zs-13" target="hDdlWtPuV5lefTkJR2zs-2" edge="1">
                    <mxGeometry relative="1" as="geometry"/>
                </mxCell>
                <mxCell id="3qWSvBv1PiIQNsYnN1V3-7" style="edgeStyle=none;html=1;exitX=0;exitY=0.5;exitDx=0;exitDy=0;endArrow=none;endFill=0;" edge="1" parent="1" source="hDdlWtPuV5lefTkJR2zs-1" target="3qWSvBv1PiIQNsYnN1V3-8">
                    <mxGeometry relative="1" as="geometry">
                        <mxPoint x="-40" y="530" as="targetPoint"/>
                    </mxGeometry>
                </mxCell>
                <mxCell id="3qWSvBv1PiIQNsYnN1V3-9" style="edgeStyle=none;shape=connector;rounded=1;html=1;exitX=0;exitY=0;exitDx=0;exitDy=0;strokeColor=default;align=center;verticalAlign=middle;fontFamily=Helvetica;fontSize=12;fontColor=default;labelBackgroundColor=default;endArrow=none;endFill=0;" edge="1" parent="1" source="hDdlWtPuV5lefTkJR2zs-1" target="3qWSvBv1PiIQNsYnN1V3-10">
                    <mxGeometry relative="1" as="geometry">
                        <mxPoint x="-20" y="410" as="targetPoint"/>
                    </mxGeometry>
                </mxCell>
                <mxCell id="3qWSvBv1PiIQNsYnN1V3-11" style="edgeStyle=none;shape=connector;rounded=1;html=1;exitX=0;exitY=1;exitDx=0;exitDy=0;strokeColor=default;align=center;verticalAlign=middle;fontFamily=Helvetica;fontSize=12;fontColor=default;labelBackgroundColor=default;endArrow=none;endFill=0;" edge="1" parent="1" source="hDdlWtPuV5lefTkJR2zs-1" target="3qWSvBv1PiIQNsYnN1V3-13">
                    <mxGeometry relative="1" as="geometry">
                        <mxPoint x="-30" y="640" as="targetPoint"/>
                    </mxGeometry>
                </mxCell>
                <mxCell id="3qWSvBv1PiIQNsYnN1V3-14" style="edgeStyle=none;shape=connector;rounded=1;html=1;exitX=0.75;exitY=1;exitDx=0;exitDy=0;strokeColor=default;align=center;verticalAlign=middle;fontFamily=Helvetica;fontSize=12;fontColor=default;labelBackgroundColor=default;endArrow=none;endFill=0;" edge="1" parent="1" source="hDdlWtPuV5lefTkJR2zs-1" target="3qWSvBv1PiIQNsYnN1V3-15">
                    <mxGeometry relative="1" as="geometry">
                        <mxPoint x="200" y="660" as="targetPoint"/>
                    </mxGeometry>
                </mxCell>
                <mxCell id="hDdlWtPuV5lefTkJR2zs-1" value="Pedido" style="rounded=0;whiteSpace=wrap;html=1;strokeColor=default;align=center;verticalAlign=middle;fontFamily=Helvetica;fontSize=11;fontColor=default;labelBackgroundColor=default;fillColor=default;" parent="1" vertex="1">
                    <mxGeometry x="40" y="500" width="120" height="60" as="geometry"/>
                </mxCell>
                <mxCell id="29HKduAUOOHAYVsJIoqf-7" style="edgeStyle=none;shape=connector;rounded=1;html=1;exitX=0.5;exitY=1;exitDx=0;exitDy=0;strokeColor=default;align=center;verticalAlign=middle;fontFamily=Helvetica;fontSize=12;fontColor=default;labelBackgroundColor=default;endArrow=none;endFill=0;" edge="1" parent="1" source="hDdlWtPuV5lefTkJR2zs-2" target="29HKduAUOOHAYVsJIoqf-8">
                    <mxGeometry relative="1" as="geometry">
                        <mxPoint x="600.2857142857147" y="660" as="targetPoint"/>
                    </mxGeometry>
                </mxCell>
                <mxCell id="29HKduAUOOHAYVsJIoqf-9" style="edgeStyle=none;shape=connector;rounded=1;html=1;exitX=1;exitY=0.5;exitDx=0;exitDy=0;strokeColor=default;align=center;verticalAlign=middle;fontFamily=Helvetica;fontSize=12;fontColor=default;labelBackgroundColor=default;endArrow=none;endFill=0;" edge="1" parent="1" source="hDdlWtPuV5lefTkJR2zs-2" target="29HKduAUOOHAYVsJIoqf-10">
                    <mxGeometry relative="1" as="geometry">
                        <mxPoint x="760" y="529.8571428571431" as="targetPoint"/>
                    </mxGeometry>
                </mxCell>
                <mxCell id="29HKduAUOOHAYVsJIoqf-11" style="edgeStyle=none;shape=connector;rounded=1;html=1;exitX=0.5;exitY=0;exitDx=0;exitDy=0;strokeColor=default;align=center;verticalAlign=middle;fontFamily=Helvetica;fontSize=12;fontColor=default;labelBackgroundColor=default;endArrow=none;endFill=0;" edge="1" parent="1" source="hDdlWtPuV5lefTkJR2zs-2" target="29HKduAUOOHAYVsJIoqf-12">
                    <mxGeometry relative="1" as="geometry">
                        <mxPoint x="600.2857142857147" y="390" as="targetPoint"/>
                    </mxGeometry>
                </mxCell>
                <mxCell id="29HKduAUOOHAYVsJIoqf-13" style="edgeStyle=none;shape=connector;rounded=1;html=1;exitX=1;exitY=1;exitDx=0;exitDy=0;strokeColor=default;align=center;verticalAlign=middle;fontFamily=Helvetica;fontSize=12;fontColor=default;labelBackgroundColor=default;endArrow=none;endFill=0;" edge="1" parent="1" source="hDdlWtPuV5lefTkJR2zs-2" target="29HKduAUOOHAYVsJIoqf-14">
                    <mxGeometry relative="1" as="geometry">
                        <mxPoint x="700" y="640" as="targetPoint"/>
                    </mxGeometry>
                </mxCell>
                <mxCell id="hDdlWtPuV5lefTkJR2zs-2" value="Pagamento" style="rounded=0;whiteSpace=wrap;html=1;strokeColor=default;align=center;verticalAlign=middle;fontFamily=Helvetica;fontSize=11;fontColor=default;labelBackgroundColor=default;fillColor=default;" parent="1" vertex="1">
                    <mxGeometry x="540" y="500" width="120" height="60" as="geometry"/>
                </mxCell>
                <mxCell id="hDdlWtPuV5lefTkJR2zs-6" style="edgeStyle=none;shape=connector;rounded=1;html=1;exitX=0.5;exitY=0;exitDx=0;exitDy=0;strokeColor=default;align=center;verticalAlign=middle;fontFamily=Helvetica;fontSize=11;fontColor=default;labelBackgroundColor=default;endArrow=none;endFill=0;entryX=0.5;entryY=1;entryDx=0;entryDy=0;" parent="1" source="hDdlWtPuV5lefTkJR2zs-19" target="hDdlWtPuV5lefTkJR2zs-1" edge="1">
                    <mxGeometry relative="1" as="geometry">
                        <mxPoint x="100" y="680" as="targetPoint"/>
                        <Array as="points"/>
                    </mxGeometry>
                </mxCell>
                <mxCell id="hDdlWtPuV5lefTkJR2zs-32" style="edgeStyle=none;shape=connector;rounded=1;html=1;exitX=0.75;exitY=0;exitDx=0;exitDy=0;strokeColor=default;align=center;verticalAlign=middle;fontFamily=Helvetica;fontSize=11;fontColor=default;labelBackgroundColor=default;endArrow=none;endFill=0;" parent="1" source="hDdlWtPuV5lefTkJR2zs-3" target="hDdlWtPuV5lefTkJR2zs-33" edge="1">
                    <mxGeometry relative="1" as="geometry">
                        <mxPoint x="430" y="900" as="targetPoint"/>
                    </mxGeometry>
                </mxCell>
                <mxCell id="hDdlWtPuV5lefTkJR2zs-34" style="edgeStyle=none;shape=connector;rounded=1;html=1;exitX=0.75;exitY=1;exitDx=0;exitDy=0;strokeColor=default;align=center;verticalAlign=middle;fontFamily=Helvetica;fontSize=11;fontColor=default;labelBackgroundColor=default;endArrow=none;endFill=0;" parent="1" source="hDdlWtPuV5lefTkJR2zs-3" target="hDdlWtPuV5lefTkJR2zs-35" edge="1">
                    <mxGeometry relative="1" as="geometry">
                        <mxPoint x="420" y="1120" as="targetPoint"/>
                    </mxGeometry>
                </mxCell>
                <mxCell id="hDdlWtPuV5lefTkJR2zs-36" style="edgeStyle=none;shape=connector;rounded=1;html=1;exitX=0.5;exitY=0;exitDx=0;exitDy=0;strokeColor=default;align=center;verticalAlign=middle;fontFamily=Helvetica;fontSize=11;fontColor=default;labelBackgroundColor=default;endArrow=none;endFill=0;" parent="1" source="hDdlWtPuV5lefTkJR2zs-3" target="hDdlWtPuV5lefTkJR2zs-37" edge="1">
                    <mxGeometry relative="1" as="geometry">
                        <mxPoint x="360" y="840" as="targetPoint"/>
                    </mxGeometry>
                </mxCell>
                <mxCell id="hDdlWtPuV5lefTkJR2zs-38" style="edgeStyle=none;shape=connector;rounded=1;html=1;exitX=0.5;exitY=1;exitDx=0;exitDy=0;strokeColor=default;align=center;verticalAlign=middle;fontFamily=Helvetica;fontSize=11;fontColor=default;labelBackgroundColor=default;endArrow=none;endFill=0;" parent="1" source="hDdlWtPuV5lefTkJR2zs-3" target="hDdlWtPuV5lefTkJR2zs-39" edge="1">
                    <mxGeometry relative="1" as="geometry">
                        <mxPoint x="329.5" y="1170" as="targetPoint"/>
                    </mxGeometry>
                </mxCell>
                <mxCell id="hDdlWtPuV5lefTkJR2zs-3" value="Cliente" style="rounded=0;whiteSpace=wrap;html=1;strokeColor=default;align=center;verticalAlign=middle;fontFamily=Helvetica;fontSize=11;fontColor=default;labelBackgroundColor=default;fillColor=default;" parent="1" vertex="1">
                    <mxGeometry x="270" y="980" width="120" height="60" as="geometry"/>
                </mxCell>
                <mxCell id="hDdlWtPuV5lefTkJR2zs-9" style="edgeStyle=none;shape=connector;rounded=1;html=1;exitX=1;exitY=0.5;exitDx=0;exitDy=0;entryX=0;entryY=0.5;entryDx=0;entryDy=0;strokeColor=default;align=center;verticalAlign=middle;fontFamily=Helvetica;fontSize=11;fontColor=default;labelBackgroundColor=default;endArrow=none;endFill=0;" parent="1" source="hDdlWtPuV5lefTkJR2zs-29" edge="1">
                    <mxGeometry relative="1" as="geometry">
                        <mxPoint x="270" y="110" as="targetPoint"/>
                    </mxGeometry>
                </mxCell>
                <mxCell id="hDdlWtPuV5lefTkJR2zs-10" value="" style="edgeStyle=none;shape=connector;rounded=1;html=1;exitX=1;exitY=0.5;exitDx=0;exitDy=0;entryX=0;entryY=0.5;entryDx=0;entryDy=0;strokeColor=default;align=center;verticalAlign=middle;fontFamily=Helvetica;fontSize=11;fontColor=default;labelBackgroundColor=default;endArrow=none;endFill=0;" parent="1" source="hDdlWtPuV5lefTkJR2zs-1" target="hDdlWtPuV5lefTkJR2zs-11" edge="1">
                    <mxGeometry relative="1" as="geometry">
                        <mxPoint x="160" y="530" as="sourcePoint"/>
                        <mxPoint x="540" y="530" as="targetPoint"/>
                    </mxGeometry>
                </mxCell>
                <mxCell id="hDdlWtPuV5lefTkJR2zs-11" value="(1:1)" style="text;html=1;align=center;verticalAlign=middle;whiteSpace=wrap;rounded=0;fontFamily=Helvetica;fontSize=11;fontColor=default;labelBackgroundColor=default;" parent="1" vertex="1">
                    <mxGeometry x="160" y="515" width="30" height="30" as="geometry"/>
                </mxCell>
                <mxCell id="hDdlWtPuV5lefTkJR2zs-12" value="" style="edgeStyle=none;shape=connector;rounded=1;html=1;exitX=1;exitY=0.5;exitDx=0;exitDy=0;entryX=0;entryY=0.5;entryDx=0;entryDy=0;strokeColor=default;align=center;verticalAlign=middle;fontFamily=Helvetica;fontSize=11;fontColor=default;labelBackgroundColor=default;endArrow=none;endFill=0;" parent="1" source="hDdlWtPuV5lefTkJR2zs-11" target="hDdlWtPuV5lefTkJR2zs-13" edge="1">
                    <mxGeometry relative="1" as="geometry">
                        <mxPoint x="190" y="530" as="sourcePoint"/>
                        <mxPoint x="540" y="530" as="targetPoint"/>
                    </mxGeometry>
                </mxCell>
                <mxCell id="hDdlWtPuV5lefTkJR2zs-13" value="(1:1)" style="text;html=1;align=center;verticalAlign=middle;whiteSpace=wrap;rounded=0;fontFamily=Helvetica;fontSize=11;fontColor=default;labelBackgroundColor=default;" parent="1" vertex="1">
                    <mxGeometry x="510" y="515" width="30" height="30" as="geometry"/>
                </mxCell>
                <mxCell id="hDdlWtPuV5lefTkJR2zs-16" value="" style="edgeStyle=none;shape=connector;rounded=1;html=1;exitX=0;exitY=0.5;exitDx=0;exitDy=0;strokeColor=default;align=center;verticalAlign=middle;fontFamily=Helvetica;fontSize=11;fontColor=default;labelBackgroundColor=default;endArrow=none;endFill=0;entryX=1;entryY=0.5;entryDx=0;entryDy=0;" parent="1" source="hDdlWtPuV5lefTkJR2zs-3" target="hDdlWtPuV5lefTkJR2zs-17" edge="1">
                    <mxGeometry relative="1" as="geometry">
                        <mxPoint x="100" y="560" as="targetPoint"/>
                        <mxPoint x="270" y="1010" as="sourcePoint"/>
                        <Array as="points"/>
                    </mxGeometry>
                </mxCell>
                <mxCell id="hDdlWtPuV5lefTkJR2zs-17" value="(1:N)" style="text;html=1;align=center;verticalAlign=middle;whiteSpace=wrap;rounded=0;fontFamily=Helvetica;fontSize=11;fontColor=default;labelBackgroundColor=default;" parent="1" vertex="1">
                    <mxGeometry x="230" y="996" width="40" height="30" as="geometry"/>
                </mxCell>
                <mxCell id="hDdlWtPuV5lefTkJR2zs-18" value="" style="edgeStyle=none;shape=connector;rounded=1;html=1;exitX=0;exitY=0.5;exitDx=0;exitDy=0;strokeColor=default;align=center;verticalAlign=middle;fontFamily=Helvetica;fontSize=11;fontColor=default;labelBackgroundColor=default;endArrow=none;endFill=0;entryX=0.5;entryY=1;entryDx=0;entryDy=0;" parent="1" source="hDdlWtPuV5lefTkJR2zs-17" target="hDdlWtPuV5lefTkJR2zs-19" edge="1">
                    <mxGeometry relative="1" as="geometry">
                        <mxPoint x="100" y="560" as="targetPoint"/>
                        <mxPoint x="230" y="1011" as="sourcePoint"/>
                        <Array as="points">
                            <mxPoint x="100" y="1010"/>
                        </Array>
                    </mxGeometry>
                </mxCell>
                <mxCell id="hDdlWtPuV5lefTkJR2zs-19" value="(N:1)" style="text;html=1;align=center;verticalAlign=middle;whiteSpace=wrap;rounded=0;fontFamily=Helvetica;fontSize=11;fontColor=default;labelBackgroundColor=default;" parent="1" vertex="1">
                    <mxGeometry x="70" y="560" width="60" height="30" as="geometry"/>
                </mxCell>
                <mxCell id="hDdlWtPuV5lefTkJR2zs-23" value="(1:1)" style="text;html=1;align=center;verticalAlign=middle;whiteSpace=wrap;rounded=0;fontFamily=Helvetica;fontSize=11;fontColor=default;labelBackgroundColor=default;" parent="1" vertex="1">
                    <mxGeometry x="70" y="470" width="60" height="30" as="geometry"/>
                </mxCell>
                <mxCell id="hDdlWtPuV5lefTkJR2zs-25" value="" style="edgeStyle=none;shape=connector;rounded=1;html=1;strokeColor=default;align=center;verticalAlign=middle;fontFamily=Helvetica;fontSize=11;fontColor=default;labelBackgroundColor=default;endArrow=none;endFill=0;entryX=0.5;entryY=0;entryDx=0;entryDy=0;exitX=0;exitY=0.5;exitDx=0;exitDy=0;" parent="1" source="hDdlWtPuV5lefTkJR2zs-29" target="hDdlWtPuV5lefTkJR2zs-23" edge="1">
                    <mxGeometry relative="1" as="geometry">
                        <mxPoint x="100" y="470" as="targetPoint"/>
                        <mxPoint x="220" y="110" as="sourcePoint"/>
                        <Array as="points">
                            <mxPoint x="100" y="110"/>
                        </Array>
                    </mxGeometry>
                </mxCell>
                <mxCell id="hDdlWtPuV5lefTkJR2zs-43" style="edgeStyle=none;shape=connector;rounded=1;html=1;exitX=1;exitY=0.5;exitDx=0;exitDy=0;entryX=0;entryY=0.5;entryDx=0;entryDy=0;strokeColor=default;align=center;verticalAlign=middle;fontFamily=Helvetica;fontSize=11;fontColor=default;labelBackgroundColor=default;endArrow=none;endFill=0;" parent="1" source="hDdlWtPuV5lefTkJR2zs-29" target="hDdlWtPuV5lefTkJR2zs-42" edge="1">
                    <mxGeometry relative="1" as="geometry"/>
                </mxCell>
                <mxCell id="hDdlWtPuV5lefTkJR2zs-29" value="(1:1)" style="text;html=1;align=center;verticalAlign=middle;whiteSpace=wrap;rounded=0;fontFamily=Helvetica;fontSize=11;fontColor=default;labelBackgroundColor=default;" parent="1" vertex="1">
                    <mxGeometry x="230" y="95" width="40" height="30" as="geometry"/>
                </mxCell>
                <mxCell id="hDdlWtPuV5lefTkJR2zs-31" style="edgeStyle=none;shape=connector;rounded=1;html=1;exitX=0;exitY=0.5;exitDx=0;exitDy=0;entryX=1;entryY=0.5;entryDx=0;entryDy=0;strokeColor=default;align=center;verticalAlign=middle;fontFamily=Helvetica;fontSize=11;fontColor=default;labelBackgroundColor=default;endArrow=none;endFill=0;" parent="1" source="hDdlWtPuV5lefTkJR2zs-30" target="hDdlWtPuV5lefTkJR2zs-3" edge="1">
                    <mxGeometry relative="1" as="geometry"/>
                </mxCell>
                <mxCell id="hDdlWtPuV5lefTkJR2zs-30" value="ID" style="ellipse;whiteSpace=wrap;html=1;aspect=fixed;strokeColor=default;align=center;verticalAlign=middle;fontFamily=Helvetica;fontSize=11;fontColor=default;labelBackgroundColor=default;fillColor=default;" parent="1" vertex="1">
                    <mxGeometry x="480" y="980" width="60" height="60" as="geometry"/>
                </mxCell>
                <mxCell id="hDdlWtPuV5lefTkJR2zs-33" value="Nome" style="ellipse;whiteSpace=wrap;html=1;aspect=fixed;strokeColor=default;align=center;verticalAlign=middle;fontFamily=Helvetica;fontSize=11;fontColor=default;labelBackgroundColor=default;fillColor=default;" parent="1" vertex="1">
                    <mxGeometry x="390" y="890" width="50" height="50" as="geometry"/>
                </mxCell>
                <mxCell id="hDdlWtPuV5lefTkJR2zs-35" value="CPF" style="ellipse;whiteSpace=wrap;html=1;aspect=fixed;strokeColor=default;align=center;verticalAlign=middle;fontFamily=Helvetica;fontSize=11;fontColor=default;labelBackgroundColor=default;fillColor=default;" parent="1" vertex="1">
                    <mxGeometry x="380" y="1080" width="50" height="50" as="geometry"/>
                </mxCell>
                <mxCell id="hDdlWtPuV5lefTkJR2zs-37" value="Telefone" style="ellipse;whiteSpace=wrap;html=1;aspect=fixed;strokeColor=default;align=center;verticalAlign=middle;fontFamily=Helvetica;fontSize=11;fontColor=default;labelBackgroundColor=default;fillColor=default;" parent="1" vertex="1">
                    <mxGeometry x="290" y="830" width="50" height="50" as="geometry"/>
                </mxCell>
                <mxCell id="hDdlWtPuV5lefTkJR2zs-39" value="Email" style="ellipse;whiteSpace=wrap;html=1;aspect=fixed;strokeColor=default;align=center;verticalAlign=middle;fontFamily=Helvetica;fontSize=11;fontColor=default;labelBackgroundColor=default;fillColor=default;" parent="1" vertex="1">
                    <mxGeometry x="289.5" y="1130" width="50" height="50" as="geometry"/>
                </mxCell>
                <mxCell id="hDdlWtPuV5lefTkJR2zs-45" style="edgeStyle=none;shape=connector;rounded=1;html=1;exitX=0;exitY=1;exitDx=0;exitDy=0;strokeColor=default;align=center;verticalAlign=middle;fontFamily=Helvetica;fontSize=11;fontColor=default;labelBackgroundColor=default;endArrow=none;endFill=0;" parent="1" source="hDdlWtPuV5lefTkJR2zs-42" target="hDdlWtPuV5lefTkJR2zs-46" edge="1">
                    <mxGeometry relative="1" as="geometry">
                        <mxPoint x="220.00000000000023" y="190" as="targetPoint"/>
                    </mxGeometry>
                </mxCell>
                <mxCell id="hDdlWtPuV5lefTkJR2zs-47" style="edgeStyle=none;shape=connector;rounded=1;html=1;exitX=1;exitY=0;exitDx=0;exitDy=0;strokeColor=default;align=center;verticalAlign=middle;fontFamily=Helvetica;fontSize=11;fontColor=default;labelBackgroundColor=default;endArrow=none;endFill=0;" parent="1" source="hDdlWtPuV5lefTkJR2zs-42" target="hDdlWtPuV5lefTkJR2zs-48" edge="1">
                    <mxGeometry relative="1" as="geometry">
                        <mxPoint x="400.0000000000002" y="30" as="targetPoint"/>
                    </mxGeometry>
                </mxCell>
                <mxCell id="hDdlWtPuV5lefTkJR2zs-49" style="edgeStyle=none;shape=connector;rounded=1;html=1;exitX=1;exitY=0.5;exitDx=0;exitDy=0;strokeColor=default;align=center;verticalAlign=middle;fontFamily=Helvetica;fontSize=11;fontColor=default;labelBackgroundColor=default;endArrow=none;endFill=0;" parent="1" source="hDdlWtPuV5lefTkJR2zs-42" target="hDdlWtPuV5lefTkJR2zs-44" edge="1">
                    <mxGeometry relative="1" as="geometry"/>
                </mxCell>
                <mxCell id="hDdlWtPuV5lefTkJR2zs-42" value="Compra" style="rhombus;whiteSpace=wrap;html=1;strokeColor=default;align=center;verticalAlign=middle;fontFamily=Helvetica;fontSize=11;fontColor=default;labelBackgroundColor=default;fillColor=default;" parent="1" vertex="1">
                    <mxGeometry x="270" y="70" width="80" height="80" as="geometry"/>
                </mxCell>
                <mxCell id="3qWSvBv1PiIQNsYnN1V3-16" style="edgeStyle=none;shape=connector;rounded=1;html=1;exitX=0.5;exitY=0;exitDx=0;exitDy=0;strokeColor=default;align=center;verticalAlign=middle;fontFamily=Helvetica;fontSize=12;fontColor=default;labelBackgroundColor=default;endArrow=none;endFill=0;" edge="1" parent="1" source="hDdlWtPuV5lefTkJR2zs-44" target="29HKduAUOOHAYVsJIoqf-1">
                    <mxGeometry relative="1" as="geometry">
                        <mxPoint x="719.739130434783" y="10" as="targetPoint"/>
                    </mxGeometry>
                </mxCell>
                <mxCell id="29HKduAUOOHAYVsJIoqf-2" style="edgeStyle=none;shape=connector;rounded=1;html=1;exitX=0.25;exitY=0;exitDx=0;exitDy=0;strokeColor=default;align=center;verticalAlign=middle;fontFamily=Helvetica;fontSize=12;fontColor=default;labelBackgroundColor=default;endArrow=none;endFill=0;" edge="1" parent="1" source="hDdlWtPuV5lefTkJR2zs-44" target="29HKduAUOOHAYVsJIoqf-3">
                    <mxGeometry relative="1" as="geometry">
                        <mxPoint x="640" y="-30.000000000000227" as="targetPoint"/>
                    </mxGeometry>
                </mxCell>
                <mxCell id="29HKduAUOOHAYVsJIoqf-4" style="edgeStyle=none;shape=connector;rounded=1;html=1;exitX=0.25;exitY=1;exitDx=0;exitDy=0;strokeColor=default;align=center;verticalAlign=middle;fontFamily=Helvetica;fontSize=12;fontColor=default;labelBackgroundColor=default;endArrow=none;endFill=0;" edge="1" parent="1" source="hDdlWtPuV5lefTkJR2zs-44" target="29HKduAUOOHAYVsJIoqf-5">
                    <mxGeometry relative="1" as="geometry">
                        <mxPoint x="640" y="259.9999999999998" as="targetPoint"/>
                    </mxGeometry>
                </mxCell>
                <mxCell id="hDdlWtPuV5lefTkJR2zs-44" value="Produto" style="rounded=0;whiteSpace=wrap;html=1;strokeColor=default;align=center;verticalAlign=middle;fontFamily=Helvetica;fontSize=11;fontColor=default;labelBackgroundColor=default;fillColor=default;" parent="1" vertex="1">
                    <mxGeometry x="660" y="80" width="120" height="60" as="geometry"/>
                </mxCell>
                <mxCell id="hDdlWtPuV5lefTkJR2zs-46" value="ID" style="ellipse;whiteSpace=wrap;html=1;aspect=fixed;strokeColor=default;align=center;verticalAlign=middle;fontFamily=Helvetica;fontSize=11;fontColor=default;labelBackgroundColor=default;fillColor=default;" parent="1" vertex="1">
                    <mxGeometry x="210" y="150" width="50" height="50" as="geometry"/>
                </mxCell>
                <mxCell id="hDdlWtPuV5lefTkJR2zs-48" value="Quantidade" style="ellipse;whiteSpace=wrap;html=1;aspect=fixed;strokeColor=default;align=center;verticalAlign=middle;fontFamily=Helvetica;fontSize=11;fontColor=default;labelBackgroundColor=default;fillColor=default;" parent="1" vertex="1">
                    <mxGeometry x="360" width="70" height="70" as="geometry"/>
                </mxCell>
                <mxCell id="3qWSvBv1PiIQNsYnN1V3-2" value="" style="edgeStyle=none;shape=connector;rounded=1;html=1;exitX=0.5;exitY=1;exitDx=0;exitDy=0;entryX=0.5;entryY=0;entryDx=0;entryDy=0;strokeColor=default;align=center;verticalAlign=middle;fontFamily=Helvetica;fontSize=11;fontColor=default;labelBackgroundColor=default;endArrow=none;endFill=0;" edge="1" parent="1" source="hDdlWtPuV5lefTkJR2zs-42" target="3qWSvBv1PiIQNsYnN1V3-1">
                    <mxGeometry relative="1" as="geometry">
                        <mxPoint x="310" y="150" as="sourcePoint"/>
                        <mxPoint x="540" y="500" as="targetPoint"/>
                        <Array as="points"/>
                    </mxGeometry>
                </mxCell>
                <mxCell id="3qWSvBv1PiIQNsYnN1V3-1" value="&lt;font style=&quot;font-size: 11px;&quot;&gt;(1:1)&lt;/font&gt;" style="text;html=1;align=center;verticalAlign=middle;whiteSpace=wrap;rounded=0;" vertex="1" parent="1">
                    <mxGeometry x="280" y="150" width="60" height="30" as="geometry"/>
                </mxCell>
                <mxCell id="3qWSvBv1PiIQNsYnN1V3-5" value="" style="edgeStyle=none;shape=connector;rounded=1;html=1;exitX=0.5;exitY=1;exitDx=0;exitDy=0;entryX=0.008;entryY=0.602;entryDx=0;entryDy=0;strokeColor=default;align=center;verticalAlign=middle;fontFamily=Helvetica;fontSize=11;fontColor=default;labelBackgroundColor=default;endArrow=none;endFill=0;entryPerimeter=0;" edge="1" parent="1" source="3qWSvBv1PiIQNsYnN1V3-1" target="3qWSvBv1PiIQNsYnN1V3-3">
                    <mxGeometry relative="1" as="geometry">
                        <mxPoint x="300" y="140" as="sourcePoint"/>
                        <mxPoint x="530" y="460" as="targetPoint"/>
                        <Array as="points">
                            <mxPoint x="310" y="508"/>
                        </Array>
                    </mxGeometry>
                </mxCell>
                <mxCell id="3qWSvBv1PiIQNsYnN1V3-3" value="&lt;font style=&quot;font-size: 11px;&quot;&gt;(1:1)&lt;/font&gt;" style="text;html=1;align=center;verticalAlign=middle;whiteSpace=wrap;rounded=0;" vertex="1" parent="1">
                    <mxGeometry x="500" y="490" width="40" height="30" as="geometry"/>
                </mxCell>
                <mxCell id="3qWSvBv1PiIQNsYnN1V3-8" value="ID" style="ellipse;whiteSpace=wrap;html=1;aspect=fixed;" vertex="1" parent="1">
                    <mxGeometry x="-140" y="490" width="50" height="50" as="geometry"/>
                </mxCell>
                <mxCell id="3qWSvBv1PiIQNsYnN1V3-10" value="Status" style="ellipse;whiteSpace=wrap;html=1;aspect=fixed;strokeColor=default;align=center;verticalAlign=middle;fontFamily=Helvetica;fontSize=12;fontColor=default;fillColor=default;" vertex="1" parent="1">
                    <mxGeometry x="-30" y="370" width="50" height="50" as="geometry"/>
                </mxCell>
                <mxCell id="3qWSvBv1PiIQNsYnN1V3-13" value="Data Pedido" style="ellipse;whiteSpace=wrap;html=1;aspect=fixed;strokeColor=default;align=center;verticalAlign=middle;fontFamily=Helvetica;fontSize=12;fontColor=default;fillColor=default;" vertex="1" parent="1">
                    <mxGeometry x="-70" y="600" width="60" height="60" as="geometry"/>
                </mxCell>
                <mxCell id="3qWSvBv1PiIQNsYnN1V3-15" value="Valor total" style="ellipse;whiteSpace=wrap;html=1;aspect=fixed;strokeColor=default;align=center;verticalAlign=middle;fontFamily=Helvetica;fontSize=12;fontColor=default;fillColor=default;" vertex="1" parent="1">
                    <mxGeometry x="160" y="620" width="40" height="40" as="geometry"/>
                </mxCell>
                <mxCell id="29HKduAUOOHAYVsJIoqf-1" value="Nome" style="ellipse;whiteSpace=wrap;html=1;aspect=fixed;strokeColor=default;align=center;verticalAlign=middle;fontFamily=Helvetica;fontSize=12;fontColor=default;fillColor=default;" vertex="1" parent="1">
                    <mxGeometry x="679.74" y="-90" width="60" height="60" as="geometry"/>
                </mxCell>
                <mxCell id="29HKduAUOOHAYVsJIoqf-3" value="ID" style="ellipse;whiteSpace=wrap;html=1;aspect=fixed;strokeColor=default;align=center;verticalAlign=middle;fontFamily=Helvetica;fontSize=12;fontColor=default;fillColor=default;" vertex="1" parent="1">
                    <mxGeometry x="580" y="-50" width="50" height="50" as="geometry"/>
                </mxCell>
                <mxCell id="29HKduAUOOHAYVsJIoqf-5" value="Preço" style="ellipse;whiteSpace=wrap;html=1;aspect=fixed;strokeColor=default;align=center;verticalAlign=middle;fontFamily=Helvetica;fontSize=12;fontColor=default;fillColor=default;" vertex="1" parent="1">
                    <mxGeometry x="600" y="220" width="50" height="50" as="geometry"/>
                </mxCell>
                <mxCell id="29HKduAUOOHAYVsJIoqf-8" value="ID" style="ellipse;whiteSpace=wrap;html=1;aspect=fixed;strokeColor=default;align=center;verticalAlign=middle;fontFamily=Helvetica;fontSize=12;fontColor=default;fillColor=default;" vertex="1" parent="1">
                    <mxGeometry x="560.29" y="620" width="40" height="40" as="geometry"/>
                </mxCell>
                <mxCell id="29HKduAUOOHAYVsJIoqf-10" value="Foma de pagamento" style="ellipse;whiteSpace=wrap;html=1;aspect=fixed;strokeColor=default;align=center;verticalAlign=middle;fontFamily=Helvetica;fontSize=12;fontColor=default;fillColor=default;" vertex="1" parent="1">
                    <mxGeometry x="720" y="495.07" width="69.86" height="69.86" as="geometry"/>
                </mxCell>
                <mxCell id="29HKduAUOOHAYVsJIoqf-12" value="Valor" style="ellipse;whiteSpace=wrap;html=1;aspect=fixed;strokeColor=default;align=center;verticalAlign=middle;fontFamily=Helvetica;fontSize=12;fontColor=default;fillColor=default;" vertex="1" parent="1">
                    <mxGeometry x="560.29" y="390" width="40" height="40" as="geometry"/>
                </mxCell>
                <mxCell id="29HKduAUOOHAYVsJIoqf-14" value="Data" style="ellipse;whiteSpace=wrap;html=1;aspect=fixed;strokeColor=default;align=center;verticalAlign=middle;fontFamily=Helvetica;fontSize=12;fontColor=default;fillColor=default;" vertex="1" parent="1">
                    <mxGeometry x="660" y="600" width="50" height="50" as="geometry"/>
                </mxCell>
            </root>
        </mxGraphModel>
    </diagram>
    <diagram id="dr1Qvx88KBJaIVN_RhD0" name="Sistema de Gestão Escolar">
        <mxGraphModel dx="826" dy="1558" grid="1" gridSize="10" guides="1" tooltips="1" connect="1" arrows="1" fold="1" page="1" pageScale="1" pageWidth="850" pageHeight="1100" math="0" shadow="0">
            <root>
                <mxCell id="0"/>
                <mxCell id="1" parent="0"/>
                <mxCell id="3KuF6vfv-O9fhnFAvwyF-1" style="edgeStyle=none;shape=connector;rounded=1;html=1;exitX=1;exitY=0.5;exitDx=0;exitDy=0;strokeColor=default;align=center;verticalAlign=middle;fontFamily=Helvetica;fontSize=12;fontColor=default;labelBackgroundColor=default;endArrow=none;endFill=0;" edge="1" parent="1" source="3KuF6vfv-O9fhnFAvwyF-6" target="kw6xZEX0tuHNC-Ck3foO-2">
                    <mxGeometry relative="1" as="geometry"/>
                </mxCell>
                <mxCell id="3KuF6vfv-O9fhnFAvwyF-19" style="edgeStyle=none;shape=connector;rounded=1;html=1;exitX=0.5;exitY=1;exitDx=0;exitDy=0;strokeColor=default;align=center;verticalAlign=middle;fontFamily=Helvetica;fontSize=12;fontColor=default;labelBackgroundColor=default;endArrow=none;endFill=0;" edge="1" parent="1" source="kw6xZEX0tuHNC-Ck3foO-1" target="3KuF6vfv-O9fhnFAvwyF-20">
                    <mxGeometry relative="1" as="geometry">
                        <mxPoint x="80" y="820" as="targetPoint"/>
                    </mxGeometry>
                </mxCell>
                <mxCell id="kw6xZEX0tuHNC-Ck3foO-1" value="Mátricula" style="rounded=0;whiteSpace=wrap;html=1;" parent="1" vertex="1">
                    <mxGeometry x="20" y="600" width="120" height="60" as="geometry"/>
                </mxCell>
                <mxCell id="3KuF6vfv-O9fhnFAvwyF-23" style="edgeStyle=none;shape=connector;rounded=1;html=1;exitX=0.5;exitY=1;exitDx=0;exitDy=0;strokeColor=default;align=center;verticalAlign=middle;fontFamily=Helvetica;fontSize=12;fontColor=default;labelBackgroundColor=default;endArrow=none;endFill=0;" edge="1" parent="1" source="kw6xZEX0tuHNC-Ck3foO-2" target="3KuF6vfv-O9fhnFAvwyF-24">
                    <mxGeometry relative="1" as="geometry">
                        <mxPoint x="609.8571428571428" y="750" as="targetPoint"/>
                    </mxGeometry>
                </mxCell>
                <mxCell id="3KuF6vfv-O9fhnFAvwyF-25" style="edgeStyle=none;shape=connector;rounded=1;html=1;exitX=0.75;exitY=1;exitDx=0;exitDy=0;strokeColor=default;align=center;verticalAlign=middle;fontFamily=Helvetica;fontSize=12;fontColor=default;labelBackgroundColor=default;endArrow=none;endFill=0;" edge="1" parent="1" source="kw6xZEX0tuHNC-Ck3foO-2" target="3KuF6vfv-O9fhnFAvwyF-26">
                    <mxGeometry relative="1" as="geometry">
                        <mxPoint x="670" y="830" as="targetPoint"/>
                    </mxGeometry>
                </mxCell>
                <mxCell id="3KuF6vfv-O9fhnFAvwyF-27" style="edgeStyle=none;shape=connector;rounded=1;html=1;exitX=1;exitY=1;exitDx=0;exitDy=0;strokeColor=default;align=center;verticalAlign=middle;fontFamily=Helvetica;fontSize=12;fontColor=default;labelBackgroundColor=default;endArrow=none;endFill=0;" edge="1" parent="1" source="kw6xZEX0tuHNC-Ck3foO-2" target="3KuF6vfv-O9fhnFAvwyF-28">
                    <mxGeometry relative="1" as="geometry">
                        <mxPoint x="730" y="740" as="targetPoint"/>
                    </mxGeometry>
                </mxCell>
                <mxCell id="3KuF6vfv-O9fhnFAvwyF-29" style="edgeStyle=none;shape=connector;rounded=1;html=1;exitX=1;exitY=0.75;exitDx=0;exitDy=0;strokeColor=default;align=center;verticalAlign=middle;fontFamily=Helvetica;fontSize=12;fontColor=default;labelBackgroundColor=default;endArrow=none;endFill=0;" edge="1" parent="1" source="kw6xZEX0tuHNC-Ck3foO-2" target="3KuF6vfv-O9fhnFAvwyF-30">
                    <mxGeometry relative="1" as="geometry">
                        <mxPoint x="800" y="644.6666666666665" as="targetPoint"/>
                    </mxGeometry>
                </mxCell>
                <mxCell id="3KuF6vfv-O9fhnFAvwyF-31" style="edgeStyle=none;shape=connector;rounded=1;html=1;exitX=1;exitY=0.25;exitDx=0;exitDy=0;strokeColor=default;align=center;verticalAlign=middle;fontFamily=Helvetica;fontSize=12;fontColor=default;labelBackgroundColor=default;endArrow=none;endFill=0;" edge="1" parent="1" source="kw6xZEX0tuHNC-Ck3foO-2" target="3KuF6vfv-O9fhnFAvwyF-32">
                    <mxGeometry relative="1" as="geometry">
                        <mxPoint x="770" y="570" as="targetPoint"/>
                    </mxGeometry>
                </mxCell>
                <mxCell id="3KuF6vfv-O9fhnFAvwyF-33" style="edgeStyle=none;shape=connector;rounded=1;html=1;exitX=0.75;exitY=0;exitDx=0;exitDy=0;strokeColor=default;align=center;verticalAlign=middle;fontFamily=Helvetica;fontSize=12;fontColor=default;labelBackgroundColor=default;endArrow=none;endFill=0;" edge="1" parent="1" source="kw6xZEX0tuHNC-Ck3foO-2" target="3KuF6vfv-O9fhnFAvwyF-34">
                    <mxGeometry relative="1" as="geometry">
                        <mxPoint x="690" y="530" as="targetPoint"/>
                    </mxGeometry>
                </mxCell>
                <mxCell id="kw6xZEX0tuHNC-Ck3foO-2" value="Aluno" style="rounded=0;whiteSpace=wrap;html=1;" parent="1" vertex="1">
                    <mxGeometry x="550" y="600" width="120" height="60" as="geometry"/>
                </mxCell>
                <mxCell id="3KuF6vfv-O9fhnFAvwyF-5" style="edgeStyle=none;shape=connector;rounded=1;html=1;exitX=1;exitY=0.5;exitDx=0;exitDy=0;entryX=0;entryY=0.5;entryDx=0;entryDy=0;strokeColor=default;align=center;verticalAlign=middle;fontFamily=Helvetica;fontSize=12;fontColor=default;labelBackgroundColor=default;endArrow=none;endFill=0;" edge="1" parent="1" source="3KuF6vfv-O9fhnFAvwyF-15" target="3KuF6vfv-O9fhnFAvwyF-4">
                    <mxGeometry relative="1" as="geometry"/>
                </mxCell>
                <mxCell id="3KuF6vfv-O9fhnFAvwyF-35" style="edgeStyle=none;shape=connector;rounded=1;html=1;exitX=0.25;exitY=0;exitDx=0;exitDy=0;strokeColor=default;align=center;verticalAlign=middle;fontFamily=Helvetica;fontSize=12;fontColor=default;labelBackgroundColor=default;endArrow=none;endFill=0;" edge="1" parent="1" source="kw6xZEX0tuHNC-Ck3foO-3" target="3KuF6vfv-O9fhnFAvwyF-36">
                    <mxGeometry relative="1" as="geometry">
                        <mxPoint x="270" y="270.0000000000001" as="targetPoint"/>
                    </mxGeometry>
                </mxCell>
                <mxCell id="3KuF6vfv-O9fhnFAvwyF-37" style="edgeStyle=none;shape=connector;rounded=1;html=1;exitX=0.5;exitY=0;exitDx=0;exitDy=0;strokeColor=default;align=center;verticalAlign=middle;fontFamily=Helvetica;fontSize=12;fontColor=default;labelBackgroundColor=default;endArrow=none;endFill=0;" edge="1" parent="1" source="kw6xZEX0tuHNC-Ck3foO-3" target="3KuF6vfv-O9fhnFAvwyF-38">
                    <mxGeometry relative="1" as="geometry">
                        <mxPoint x="310" y="220" as="targetPoint"/>
                    </mxGeometry>
                </mxCell>
                <mxCell id="kw6xZEX0tuHNC-Ck3foO-3" value="Discuplina" style="rounded=0;whiteSpace=wrap;html=1;" parent="1" vertex="1">
                    <mxGeometry x="260" y="350" width="120" height="60" as="geometry"/>
                </mxCell>
                <mxCell id="kw6xZEX0tuHNC-Ck3foO-4" value="Professor" style="rounded=0;whiteSpace=wrap;html=1;" parent="1" vertex="1">
                    <mxGeometry x="1690" y="420" width="120" height="60" as="geometry"/>
                </mxCell>
                <mxCell id="3KuF6vfv-O9fhnFAvwyF-39" style="edgeStyle=none;shape=connector;rounded=1;html=1;exitX=0.25;exitY=0;exitDx=0;exitDy=0;strokeColor=default;align=center;verticalAlign=middle;fontFamily=Helvetica;fontSize=12;fontColor=default;labelBackgroundColor=default;endArrow=none;endFill=0;" edge="1" parent="1" source="3KuF6vfv-O9fhnFAvwyF-4" target="3KuF6vfv-O9fhnFAvwyF-40">
                    <mxGeometry relative="1" as="geometry">
                        <mxPoint x="640" y="220" as="targetPoint"/>
                    </mxGeometry>
                </mxCell>
                <mxCell id="3KuF6vfv-O9fhnFAvwyF-41" style="edgeStyle=none;shape=connector;rounded=1;html=1;exitX=0.5;exitY=0;exitDx=0;exitDy=0;strokeColor=default;align=center;verticalAlign=middle;fontFamily=Helvetica;fontSize=12;fontColor=default;labelBackgroundColor=default;endArrow=none;endFill=0;" edge="1" parent="1" source="3KuF6vfv-O9fhnFAvwyF-4" target="3KuF6vfv-O9fhnFAvwyF-42">
                    <mxGeometry relative="1" as="geometry">
                        <mxPoint x="690" y="210" as="targetPoint"/>
                    </mxGeometry>
                </mxCell>
                <mxCell id="3KuF6vfv-O9fhnFAvwyF-43" style="edgeStyle=none;shape=connector;rounded=1;html=1;exitX=0.75;exitY=0;exitDx=0;exitDy=0;strokeColor=default;align=center;verticalAlign=middle;fontFamily=Helvetica;fontSize=12;fontColor=default;labelBackgroundColor=default;endArrow=none;endFill=0;" edge="1" parent="1" source="3KuF6vfv-O9fhnFAvwyF-4" target="3KuF6vfv-O9fhnFAvwyF-44">
                    <mxGeometry relative="1" as="geometry">
                        <mxPoint x="730" y="220" as="targetPoint"/>
                    </mxGeometry>
                </mxCell>
                <mxCell id="3KuF6vfv-O9fhnFAvwyF-45" style="edgeStyle=none;shape=connector;rounded=1;html=1;exitX=1;exitY=0;exitDx=0;exitDy=0;strokeColor=default;align=center;verticalAlign=middle;fontFamily=Helvetica;fontSize=12;fontColor=default;labelBackgroundColor=default;endArrow=none;endFill=0;" edge="1" parent="1" source="3KuF6vfv-O9fhnFAvwyF-4" target="3KuF6vfv-O9fhnFAvwyF-46">
                    <mxGeometry relative="1" as="geometry">
                        <mxPoint x="820" y="290" as="targetPoint"/>
                    </mxGeometry>
                </mxCell>
                <mxCell id="3KuF6vfv-O9fhnFAvwyF-47" style="edgeStyle=none;shape=connector;rounded=1;html=1;exitX=1;exitY=0.25;exitDx=0;exitDy=0;strokeColor=default;align=center;verticalAlign=middle;fontFamily=Helvetica;fontSize=12;fontColor=default;labelBackgroundColor=default;endArrow=none;endFill=0;" edge="1" parent="1" source="3KuF6vfv-O9fhnFAvwyF-4" target="3KuF6vfv-O9fhnFAvwyF-48">
                    <mxGeometry relative="1" as="geometry">
                        <mxPoint x="820" y="410" as="targetPoint"/>
                    </mxGeometry>
                </mxCell>
                <mxCell id="3KuF6vfv-O9fhnFAvwyF-4" value="Professor" style="rounded=0;whiteSpace=wrap;html=1;" vertex="1" parent="1">
                    <mxGeometry x="620" y="350" width="120" height="60" as="geometry"/>
                </mxCell>
                <mxCell id="3KuF6vfv-O9fhnFAvwyF-7" value="" style="edgeStyle=none;shape=connector;rounded=1;html=1;exitX=1;exitY=0.5;exitDx=0;exitDy=0;strokeColor=default;align=center;verticalAlign=middle;fontFamily=Helvetica;fontSize=12;fontColor=default;labelBackgroundColor=default;endArrow=none;endFill=0;" edge="1" parent="1" source="3KuF6vfv-O9fhnFAvwyF-8" target="3KuF6vfv-O9fhnFAvwyF-6">
                    <mxGeometry relative="1" as="geometry">
                        <mxPoint x="140" y="630" as="sourcePoint"/>
                        <mxPoint x="550" y="630" as="targetPoint"/>
                    </mxGeometry>
                </mxCell>
                <mxCell id="3KuF6vfv-O9fhnFAvwyF-6" value="(1:1)" style="text;html=1;align=center;verticalAlign=middle;whiteSpace=wrap;rounded=0;fontFamily=Helvetica;fontSize=12;fontColor=default;" vertex="1" parent="1">
                    <mxGeometry x="510" y="615" width="40" height="30" as="geometry"/>
                </mxCell>
                <mxCell id="3KuF6vfv-O9fhnFAvwyF-9" value="" style="edgeStyle=none;shape=connector;rounded=1;html=1;exitX=1;exitY=0.5;exitDx=0;exitDy=0;strokeColor=default;align=center;verticalAlign=middle;fontFamily=Helvetica;fontSize=12;fontColor=default;labelBackgroundColor=default;endArrow=none;endFill=0;" edge="1" parent="1" source="kw6xZEX0tuHNC-Ck3foO-1" target="3KuF6vfv-O9fhnFAvwyF-8">
                    <mxGeometry relative="1" as="geometry">
                        <mxPoint x="140" y="630" as="sourcePoint"/>
                        <mxPoint x="500" y="630" as="targetPoint"/>
                    </mxGeometry>
                </mxCell>
                <mxCell id="3KuF6vfv-O9fhnFAvwyF-8" value="(1:1)" style="text;html=1;align=center;verticalAlign=middle;whiteSpace=wrap;rounded=0;fontFamily=Helvetica;fontSize=12;fontColor=default;" vertex="1" parent="1">
                    <mxGeometry x="140" y="615" width="30" height="30" as="geometry"/>
                </mxCell>
                <mxCell id="3KuF6vfv-O9fhnFAvwyF-11" value="" style="edgeStyle=none;shape=connector;rounded=1;html=1;exitX=0.5;exitY=0;exitDx=0;exitDy=0;entryX=0;entryY=0.5;entryDx=0;entryDy=0;strokeColor=default;align=center;verticalAlign=middle;fontFamily=Helvetica;fontSize=12;fontColor=default;labelBackgroundColor=default;endArrow=none;endFill=0;" edge="1" parent="1" source="3KuF6vfv-O9fhnFAvwyF-17" target="3KuF6vfv-O9fhnFAvwyF-10">
                    <mxGeometry relative="1" as="geometry">
                        <mxPoint x="80" y="600" as="sourcePoint"/>
                        <mxPoint x="260" y="380" as="targetPoint"/>
                        <Array as="points">
                            <mxPoint x="80" y="380"/>
                        </Array>
                    </mxGeometry>
                </mxCell>
                <mxCell id="3KuF6vfv-O9fhnFAvwyF-10" value="(N:1)" style="text;html=1;align=center;verticalAlign=middle;whiteSpace=wrap;rounded=0;fontFamily=Helvetica;fontSize=12;fontColor=default;" vertex="1" parent="1">
                    <mxGeometry x="220" y="365" width="40" height="30" as="geometry"/>
                </mxCell>
                <mxCell id="3KuF6vfv-O9fhnFAvwyF-14" value="" style="edgeStyle=none;shape=connector;rounded=1;html=1;exitX=1;exitY=0.5;exitDx=0;exitDy=0;entryX=0;entryY=0.5;entryDx=0;entryDy=0;strokeColor=default;align=center;verticalAlign=middle;fontFamily=Helvetica;fontSize=12;fontColor=default;labelBackgroundColor=default;endArrow=none;endFill=0;" edge="1" parent="1" source="kw6xZEX0tuHNC-Ck3foO-3" target="3KuF6vfv-O9fhnFAvwyF-13">
                    <mxGeometry relative="1" as="geometry">
                        <mxPoint x="380" y="380" as="sourcePoint"/>
                        <mxPoint x="620" y="380" as="targetPoint"/>
                    </mxGeometry>
                </mxCell>
                <mxCell id="3KuF6vfv-O9fhnFAvwyF-13" value="(1:1)" style="text;html=1;align=center;verticalAlign=middle;whiteSpace=wrap;rounded=0;fontFamily=Helvetica;fontSize=12;fontColor=default;" vertex="1" parent="1">
                    <mxGeometry x="380" y="365" width="30" height="30" as="geometry"/>
                </mxCell>
                <mxCell id="3KuF6vfv-O9fhnFAvwyF-16" value="" style="edgeStyle=none;shape=connector;rounded=1;html=1;exitX=1;exitY=0.5;exitDx=0;exitDy=0;entryX=0;entryY=0.5;entryDx=0;entryDy=0;strokeColor=default;align=center;verticalAlign=middle;fontFamily=Helvetica;fontSize=12;fontColor=default;labelBackgroundColor=default;endArrow=none;endFill=0;" edge="1" parent="1" source="3KuF6vfv-O9fhnFAvwyF-13" target="3KuF6vfv-O9fhnFAvwyF-15">
                    <mxGeometry relative="1" as="geometry">
                        <mxPoint x="440" y="380" as="sourcePoint"/>
                        <mxPoint x="620" y="380" as="targetPoint"/>
                    </mxGeometry>
                </mxCell>
                <mxCell id="3KuF6vfv-O9fhnFAvwyF-15" value="(1:1)" style="text;html=1;align=center;verticalAlign=middle;whiteSpace=wrap;rounded=0;fontFamily=Helvetica;fontSize=12;fontColor=default;" vertex="1" parent="1">
                    <mxGeometry x="590" y="365" width="30" height="30" as="geometry"/>
                </mxCell>
                <mxCell id="3KuF6vfv-O9fhnFAvwyF-18" value="" style="edgeStyle=none;shape=connector;rounded=1;html=1;exitX=0.5;exitY=0;exitDx=0;exitDy=0;entryX=0.5;entryY=1;entryDx=0;entryDy=0;strokeColor=default;align=center;verticalAlign=middle;fontFamily=Helvetica;fontSize=12;fontColor=default;labelBackgroundColor=default;endArrow=none;endFill=0;" edge="1" parent="1" source="kw6xZEX0tuHNC-Ck3foO-1" target="3KuF6vfv-O9fhnFAvwyF-17">
                    <mxGeometry relative="1" as="geometry">
                        <mxPoint x="80" y="600" as="sourcePoint"/>
                        <mxPoint x="220" y="380" as="targetPoint"/>
                        <Array as="points"/>
                    </mxGeometry>
                </mxCell>
                <mxCell id="3KuF6vfv-O9fhnFAvwyF-17" value="(1:N)" style="text;html=1;align=center;verticalAlign=middle;whiteSpace=wrap;rounded=0;fontFamily=Helvetica;fontSize=12;fontColor=default;" vertex="1" parent="1">
                    <mxGeometry x="50" y="570" width="60" height="30" as="geometry"/>
                </mxCell>
                <mxCell id="3KuF6vfv-O9fhnFAvwyF-20" value="ID" style="ellipse;whiteSpace=wrap;html=1;aspect=fixed;strokeColor=default;align=center;verticalAlign=middle;fontFamily=Helvetica;fontSize=12;fontColor=default;fillColor=default;" vertex="1" parent="1">
                    <mxGeometry x="20" y="790" width="50" height="50" as="geometry"/>
                </mxCell>
                <mxCell id="3KuF6vfv-O9fhnFAvwyF-24" value="ID" style="ellipse;whiteSpace=wrap;html=1;aspect=fixed;strokeColor=default;align=center;verticalAlign=middle;fontFamily=Helvetica;fontSize=12;fontColor=default;fillColor=default;" vertex="1" parent="1">
                    <mxGeometry x="569.86" y="710" width="30" height="30" as="geometry"/>
                </mxCell>
                <mxCell id="3KuF6vfv-O9fhnFAvwyF-26" value="Nome" style="ellipse;whiteSpace=wrap;html=1;aspect=fixed;strokeColor=default;align=center;verticalAlign=middle;fontFamily=Helvetica;fontSize=12;fontColor=default;fillColor=default;" vertex="1" parent="1">
                    <mxGeometry x="630" y="790" width="50" height="50" as="geometry"/>
                </mxCell>
                <mxCell id="3KuF6vfv-O9fhnFAvwyF-28" value="CPF" style="ellipse;whiteSpace=wrap;html=1;aspect=fixed;strokeColor=default;align=center;verticalAlign=middle;fontFamily=Helvetica;fontSize=12;fontColor=default;fillColor=default;" vertex="1" parent="1">
                    <mxGeometry x="690" y="700" width="40" height="40" as="geometry"/>
                </mxCell>
                <mxCell id="3KuF6vfv-O9fhnFAvwyF-30" value="Telefone" style="ellipse;whiteSpace=wrap;html=1;aspect=fixed;strokeColor=default;align=center;verticalAlign=middle;fontFamily=Helvetica;fontSize=12;fontColor=default;fillColor=default;" vertex="1" parent="1">
                    <mxGeometry x="760" y="620" width="50" height="50" as="geometry"/>
                </mxCell>
                <mxCell id="3KuF6vfv-O9fhnFAvwyF-32" value="Endereço" style="ellipse;whiteSpace=wrap;html=1;aspect=fixed;strokeColor=default;align=center;verticalAlign=middle;fontFamily=Helvetica;fontSize=12;fontColor=default;fillColor=default;" vertex="1" parent="1">
                    <mxGeometry x="730" y="550" width="60" height="60" as="geometry"/>
                </mxCell>
                <mxCell id="3KuF6vfv-O9fhnFAvwyF-34" value="Email" style="ellipse;whiteSpace=wrap;html=1;aspect=fixed;strokeColor=default;align=center;verticalAlign=middle;fontFamily=Helvetica;fontSize=12;fontColor=default;fillColor=default;" vertex="1" parent="1">
                    <mxGeometry x="650" y="520" width="50" height="50" as="geometry"/>
                </mxCell>
                <mxCell id="3KuF6vfv-O9fhnFAvwyF-36" value="ID" style="ellipse;whiteSpace=wrap;html=1;aspect=fixed;strokeColor=default;align=center;verticalAlign=middle;fontFamily=Helvetica;fontSize=12;fontColor=default;fillColor=default;" vertex="1" parent="1">
                    <mxGeometry x="230" y="280" width="30" height="30" as="geometry"/>
                </mxCell>
                <mxCell id="3KuF6vfv-O9fhnFAvwyF-38" value="Nome" style="ellipse;whiteSpace=wrap;html=1;aspect=fixed;strokeColor=default;align=center;verticalAlign=middle;fontFamily=Helvetica;fontSize=12;fontColor=default;fillColor=default;" vertex="1" parent="1">
                    <mxGeometry x="270" y="220" width="40" height="40" as="geometry"/>
                </mxCell>
                <mxCell id="3KuF6vfv-O9fhnFAvwyF-40" value="ID" style="ellipse;whiteSpace=wrap;html=1;aspect=fixed;strokeColor=default;align=center;verticalAlign=middle;fontFamily=Helvetica;fontSize=12;fontColor=default;fillColor=default;" vertex="1" parent="1">
                    <mxGeometry x="600" y="220" width="40" height="40" as="geometry"/>
                </mxCell>
                <mxCell id="3KuF6vfv-O9fhnFAvwyF-42" value="Nome" style="ellipse;whiteSpace=wrap;html=1;aspect=fixed;strokeColor=default;align=center;verticalAlign=middle;fontFamily=Helvetica;fontSize=12;fontColor=default;fillColor=default;" vertex="1" parent="1">
                    <mxGeometry x="655" y="160" width="40" height="40" as="geometry"/>
                </mxCell>
                <mxCell id="3KuF6vfv-O9fhnFAvwyF-44" value="CPF" style="ellipse;whiteSpace=wrap;html=1;aspect=fixed;strokeColor=default;align=center;verticalAlign=middle;fontFamily=Helvetica;fontSize=12;fontColor=default;fillColor=default;" vertex="1" parent="1">
                    <mxGeometry x="720" y="220" width="50" height="50" as="geometry"/>
                </mxCell>
                <mxCell id="3KuF6vfv-O9fhnFAvwyF-46" value="Telefone" style="ellipse;whiteSpace=wrap;html=1;aspect=fixed;strokeColor=default;align=center;verticalAlign=middle;fontFamily=Helvetica;fontSize=12;fontColor=default;fillColor=default;" vertex="1" parent="1">
                    <mxGeometry x="780" y="280" width="50" height="50" as="geometry"/>
                </mxCell>
                <mxCell id="3KuF6vfv-O9fhnFAvwyF-48" value="Email" style="ellipse;whiteSpace=wrap;html=1;aspect=fixed;strokeColor=default;align=center;verticalAlign=middle;fontFamily=Helvetica;fontSize=12;fontColor=default;fillColor=default;" vertex="1" parent="1">
                    <mxGeometry x="780" y="370" width="50" height="50" as="geometry"/>
                </mxCell>
            </root>
        </mxGraphModel>
    </diagram>
</mxfile>